<svg viewBox="0 0 1024 1024" version="1.1" xmlns="http://www.w3.org/2000/svg"><path d="M512 64C264.590222 64 64 264.590222 64 512S264.590222 960 512 960 960 759.409778 960 512 759.409778 64 512 64z m210.488889 612.408889c-11.491556 1.393778-44.885333-52.707556-44.885333-52.707556 0 31.288889-16.213333 72.192-51.114667 101.802667 16.924444 5.205333 54.897778 19.2 45.909333 34.417778-7.310222 12.288-125.610667 7.879111-159.800889 3.982222-34.190222 3.783111-152.490667 8.305778-159.800889-3.982222-9.102222-15.217778 28.899556-29.212444 45.795556-34.417778-34.986667-29.496889-51.086222-70.4-51.086222-101.802667 0 0-33.393778 54.101333-44.913778 52.707556-5.404444-0.711111-12.401778-29.582222 9.386667-99.697778 10.325333-32.995556 22.016-60.501333 40.220444-105.813333-3.100444-116.906667 45.312-215.011556 160.426667-215.011556 113.863111 0 163.271111 96.113778 160.369778 215.04 18.119111 45.169778 29.895111 72.760889 40.192 105.784889 21.703111 70.087111 14.620444 99.100444 9.301333 99.697778z" fill="currentColor" /></svg>