<svg viewBox="0 0 1024 1024" xmlns="http://www.w3.org/2000/svg"><path fill="currentColor" d="M882.346667 135.253333a311.466667 311.466667 0 0 0-418.133334-89.6l-238.933333 151.893334a271.36 271.36 0 0 0-123.306667 183.466666 284.16 284.16 0 0 0 28.586667 184.746667 261.973333 261.973333 0 0 0-40.533333 102.4 291.84 291.84 0 0 0 49.493333 220.16 312.746667 312.746667 0 0 0 418.133333 90.453333l238.933334-151.893333a271.36 271.36 0 0 0 122.88-183.466667 284.16 284.16 0 0 0-28.586667-184.32 289.706667 289.706667 0 0 0-8.533333-323.84zM440.32 901.546667a189.013333 189.013333 0 0 1-203.093333-75.52c-27.733333-38.4-37.973333-85.76-29.866667-132.693334l4.693333-22.613333 4.266667-14.08 12.8 8.533333c28.16 21.333333 59.733333 36.693333 93.44 46.933334l8.533333 2.986666-0.853333 8.533334c-0.853333 11.946667 2.56 25.173333 9.386667 35.413333 14.08 20.053333 38.4 29.866667 61.866666 23.466667 5.12-1.706667 10.24-3.413333 14.506667-5.973334l238.08-151.893333c11.946667-7.68 19.626667-19.2 22.613333-32.853333 2.56-14.08-0.853333-28.586667-8.533333-40.106667-14.08-19.626667-38.4-28.586667-61.866667-22.613333-5.12 1.706667-10.666667 3.84-14.933333 6.4l-90.026667 57.173333a189.013333 189.013333 0 0 1-251.733333-54.613333 174.933333 174.933333 0 0 1-29.866667-132.693334 164.266667 164.266667 0 0 1 75.52-110.933333l237.653334-151.893333c14.933333-9.386667 31.146667-16.213333 48.64-21.333334 76.8-20.053333 157.866667 10.24 203.093333 75.093334a175.786667 175.786667 0 0 1 24.32 155.306666l-4.266667 14.08-12.373333-8.533333a316.586667 316.586667 0 0 0-93.866667-46.933333l-8.533333-2.56 0.853333-8.533334c0.853333-12.373333-2.56-25.6-9.386666-35.84-14.08-20.053333-38.4-28.586667-61.866667-22.613333-5.12 1.706667-10.24 3.413333-14.506667 5.973333L366.506667 399.786667c-11.946667 8.106667-19.626667 19.2-22.186667 33.28-2.56 13.653333 0.853333 28.586667 8.533333 39.68 13.653333 20.053333 38.4 28.586667 61.44 22.613333 5.546667-1.706667 10.666667-3.413333 14.933334-5.973333l90.88-58.026667c14.933333-9.813333 31.573333-17.066667 48.64-21.76 77.226667-20.053333 157.866667 10.24 203.093333 75.52 27.733333 38.4 38.4 85.76 30.72 132.266667a164.266667 164.266667 0 0 1-74.666667 110.933333l-238.08 151.466667a209.066667 209.066667 0 0 1-49.493333 21.76z" /></svg>