<svg viewBox="0 0 1024 1024" version="1.1" xmlns="http://www.w3.org/2000/svg"><path d="M167.963944 592.538291c0-40.664142 21.045315-84.85562 107.129926-91.260493 86.110193-6.380314 202.372104 69.439512 202.372104 69.439512S391.594211 689.742147 290.419927 689.742147C189.221084 689.742147 167.963944 633.202433 167.963944 592.538291M400.32813 142.094252l0 96.766904-174.709067 0 0 42.526559 174.709067-1.470491 0 64.527642L260.191462 344.444866l0 33.724079 288.456714 0c0 0-3.148713 27.313066-14.214746 61.325717-11.038404 34.025954-22.434965 63.780629-22.434965 63.780629s-135.439692-53.963029-206.833719-53.963029c-71.405283 0-158.192905 32.647561-166.609599 127.364783-8.392134 94.712105 40.433898 146.022725 109.192911 164.942633 68.77334 18.918885 132.290979-0.24764 187.603749-31.03483 55.298444-30.78719 109.523439-100.745519 109.523439-100.745519l286.763143 158.580738c0 0 18.041912-31.011294 31.024597-59.809177 12.957103-28.780487 23.718191-61.648059 23.718191-61.648059l-300.012911-114.836445c0 0 18.358113-31.290657 37.96159-92.6307 19.61371-61.325717 22.394033-95.049796 22.394033-95.049796l-154.645103-1.477654 0-60.111053 187.284477-1.469468 0-42.526559L492.07981 238.861156l0-96.766904L400.32813 142.094252z" fill="currentColor" /></svg>